<?xml version="1.0" encoding="UTF-8" standalone="no"?>
<svg xmlns:dc="http://purl.org/dc/elements/1.1/" xmlns:cc="http://creativecommons.org/ns#" xmlns:rdf="http://www.w3.org/1999/02/22-rdf-syntax-ns#" xmlns:svg="http://www.w3.org/2000/svg" xmlns="http://www.w3.org/2000/svg" xmlns:sodipodi="http://sodipodi.sourceforge.net/DTD/sodipodi-0.dtd" xmlns:inkscape="http://www.inkscape.org/namespaces/inkscape" version="1.1" id="Layer_1" x="0px" y="0px" width="640.00098" height="200.166" viewBox="0 0 600.00091 187.65562" enable-background="new 0 0 626.844 179.897" xml:space="preserve" inkscape:version="1.0.2-2 (e86c870879, 2021-01-15)" sodipodi:docname="Shenkar_logo.svg"><metadata id="metadata79"><rdf:RDF><cc:Work rdf:about=""><dc:format>image/svg+xml</dc:format><dc:type rdf:resource="http://purl.org/dc/dcmitype/StillImage"/><dc:title/></cc:Work></rdf:RDF></metadata><defs id="defs77"/><sodipodi:namedview pagecolor="#ffffff" bordercolor="#666666" borderopacity="1" objecttolerance="10" gridtolerance="10" guidetolerance="10" inkscape:pageopacity="0" inkscape:pageshadow="2" inkscape:window-width="1920" inkscape:window-height="1014" id="namedview75" showgrid="false" inkscape:zoom="1.1183788" inkscape:cx="435.83477" inkscape:cy="125.47545" inkscape:window-x="-8" inkscape:window-y="-8" inkscape:window-maximized="1" inkscape:current-layer="Layer_1" inkscape:document-rotation="0" inkscape:snap-page="true" inkscape:snap-grids="false"/>




































<g id="g36" transform="matrix(0.99940367,0,0,0.99940367,-31.156838,4.6874997)"><rect x="465.66699" fill="#bb2741" width="19.761" height="16.903999" id="rect53" y="0"/><rect x="465.66699" y="46.896999" fill="#bb2741" width="19.761" height="53.569" id="rect55"/><rect x="533.62" y="22.393" fill="#bb2741" width="73.677002" height="19.75" id="rect57"/><rect x="552.086" fill="#bb2741" width="19.761" height="16.903999" id="rect59" y="0"/><rect x="509.229" fill="#bb2741" width="19.761" height="58.568001" id="rect61" y="0"/><rect x="553.27899" y="46.896999" fill="#bb2741" width="19.75" height="53.569" id="rect63"/><rect x="489.702" y="63.700001" fill="#bb2741" width="58.803001" height="19.75" id="rect65"/><rect x="429.70599" y="104.986" fill="#bb2741" width="75.114998" height="19.761" id="rect67"/><polyline fill="#bb2741" points="441.877,22.393 504.821,22.393 504.821,42.144 449.731,42.144 440.051,52.896 449.731,63.567   460.771,63.567 460.771,83.338 442.713,83.338 411.537,53.559 441.877,22.393 " id="polyline69"/><polyline fill="#bb2741" points="596.493,124.726 533.549,124.726 533.549,104.965 588.639,104.965 598.33,94.223 588.639,83.542   577.6,83.542 577.6,63.792 595.678,63.792 626.844,93.55 596.493,124.726 " id="polyline71"/><polyline fill="#bb2741" points="509.229,87.592 528.989,87.592 528.989,138.263 540.996,149.874 551.667,140.181 551.667,129.144   571.418,129.144 571.418,147.201 541.649,178.387 518.828,156.167 497.608,178.387 466.442,148.037 466.442,128.685   486.203,128.685 486.203,140.181 496.945,149.874 509.229,138.244 509.229,87.592 " id="polyline73"/><path inkscape:connector-curvature="0" id="path2997" style="font-style:normal;font-variant:normal;font-weight:bold;font-stretch:normal;font-size:40px;line-height:125%;font-family:NarkisBlockMF;-inkscape-font-specification:'NarkisBlockMF Bold';text-align:start;letter-spacing:0px;word-spacing:0px;writing-mode:lr-tb;text-anchor:start;fill:#000000;fill-opacity:1;stroke:none" d="m 391.62033,37.153553 c -2.18062,20.147424 -3.94594,33.076654 -5.29596,38.787716 -3.22013,13.707338 -8.30844,23.936309 -15.26499,30.686941 -8.51606,8.20537 -20.7195,12.30805 -36.61042,12.30805 h -44.24052 l -9.81221,-81.782707 h 24.45444 l 3.74141,33.178022 c 3.73658,4.7e-5 6.82508,-0.830314 9.26551,-2.491087 2.4403,-1.660668 3.86809,-4.308632 4.28332,-7.9439 l 2.33897,-22.743035 h 23.98859 l -1.55934,19.781306 c -0.83042,9.866147 -3.65982,17.058116 -8.48821,21.575935 -4.82851,4.517905 -12.1758,6.776832 -22.04183,6.776801 h -6.07559 l 1.55931,13.396712 h 21.18372 c 9.34627,2e-5 16.87656,-3.738187 22.59094,-11.214635 4.98207,-6.544608 7.94061,-14.748386 8.87567,-24.611355 l 2.33893,-25.704764 z"/><path inkscape:connector-curvature="0" id="path2999" style="font-style:normal;font-variant:normal;font-weight:bold;font-stretch:normal;font-size:40px;line-height:125%;font-family:NarkisBlockMF;-inkscape-font-specification:'NarkisBlockMF Bold';text-align:start;letter-spacing:0px;word-spacing:0px;writing-mode:lr-tb;text-anchor:start;fill:#000000;fill-opacity:1;stroke:none" d="M 264.07579,118.93626 H 218.89873 V 98.684307 h 20.25198 V 57.405504 H 221.23296 V 37.153553 h 42.84283 z"/><path inkscape:connector-curvature="0" id="path3001" style="font-style:normal;font-variant:normal;font-weight:bold;font-stretch:normal;font-size:40px;line-height:125%;font-family:NarkisBlockMF;-inkscape-font-specification:'NarkisBlockMF Bold';text-align:start;letter-spacing:0px;word-spacing:0px;writing-mode:lr-tb;text-anchor:start;fill:#000000;fill-opacity:1;stroke:none" d="m 211.24959,37.153553 -27.1072,81.782707 H 157.97174 L 178.22371,57.405504 H 119.6499 V 37.153553 Z M 144.57503,138.0948 H 119.6499 V 74.852607 h 24.92513 z"/><path inkscape:connector-curvature="0" id="path3003" style="font-style:normal;font-variant:normal;font-weight:bold;font-stretch:normal;font-size:40px;line-height:125%;font-family:NarkisBlockMF;-inkscape-font-specification:'NarkisBlockMF Bold';text-align:start;letter-spacing:0px;word-spacing:0px;writing-mode:lr-tb;text-anchor:start;fill:#000000;fill-opacity:1;stroke:none" d="M 100.98103,118.93626 H 76.0559 V 67.060837 c -3.9e-5,-6.43683 -3.375367,-9.65527 -10.125946,-9.655333 H 35.865774 V 37.153553 H 69.82344 c 9.555447,8.2e-5 17.13726,2.700337 22.745438,8.100781 5.608022,5.400587 8.412072,12.826295 8.412152,22.277148 z"/></g></svg>