<svg fill="none" height="33" viewBox="0 0 144 33" width="144" xmlns="http://www.w3.org/2000/svg"><g clip-path="url(#clip0_4186_47420)"><path d="M15.5145 24.783C15.5145 21.7332 13.5214 20.4061 10.121 19.0389L7.58194 18.0223C1.91297 15.7537 0.195255 12.6288 0.195255 8.68254C0.195255 3.13376 4.84756 0.164062 10.9072 0.164062C14.0321 0.164062 17.3173 0.945299 19.8163 2.31246V9.0331H19.2304C18.1737 3.915 14.8534 1.37097 11.3329 1.37097C7.8123 1.37097 6.01941 3.86993 6.01941 6.52914C6.01941 8.79773 6.91587 10.5154 10.3213 11.8826L13.4863 13.1747C17.5127 14.8173 21.8094 16.9256 21.8094 22.4794C21.8094 29.2401 16.456 32.1347 10.2011 32.1347C6.76063 32.1347 2.81445 31.3134 0 29.7909V22.5194H0.585888C1.6025 28.3437 5.97947 30.8426 9.77047 30.8426C12.9755 30.8426 15.5145 28.7343 15.5145 24.783Z" fill="#003746"></path><path d="M55.0773 12.7837L48.0812 31.5834H44.5657L39.8732 18.6079L35.1808 31.5834H31.6652L24.6692 12.7837H31.0792L35.6915 26.0747L40.5793 12.7837H44.1349L48.5919 26.0747L53.5148 12.7837H55.0773Z" fill="#003746"></path><path d="M67.1912 32.1343C60.9761 32.1343 57.1047 28.0677 57.1047 21.7374C57.1047 16.0332 61.4418 11.7712 67.3064 11.7712C72.1142 11.7712 75.8251 14.8212 76.0205 20.0196H63.2798V20.841C63.2798 25.8842 64.9976 29.0493 69.0241 29.0493C71.3279 29.0493 74.2627 27.9926 75.8653 24.0462L76.5313 24.2415C75.124 29.7504 71.5282 32.1393 67.1912 32.1393V32.1343ZM63.3599 19.003H70.3963C70.3963 14.7811 69.3798 12.6326 67.3465 12.6326C65.198 12.6326 63.7105 15.0566 63.3599 19.003Z" fill="#003746"></path><path d="M89.7465 32.1343C83.5314 32.1343 79.66 28.0677 79.66 21.7374C79.66 16.0332 83.9971 11.7712 89.8617 11.7712C94.6695 11.7712 98.3804 14.8212 98.5758 20.0196H85.8351V20.841C85.8351 25.8842 87.5529 29.0493 91.5794 29.0493C93.8832 29.0493 96.8179 27.9926 98.4205 24.0462L99.0866 24.2415C97.6793 29.7504 94.0835 32.1393 89.7465 32.1393V32.1343ZM85.9152 19.003H92.9516C92.9516 14.7811 91.9349 12.6326 89.9016 12.6326C87.7531 12.6326 86.2658 15.0566 85.9152 19.003Z" fill="#003746"></path><path d="M133.597 27.0487C132.27 29.0018 131.293 29.5877 129.961 29.5877C128.048 29.5877 127.107 28.4559 127.107 25.8719V13.8729H139.465V12.7761H127.107V4.9187L121.127 9.10032V12.7761H110.896V4.9187L104.917 9.10032V12.7761H102.027V13.8729H104.917V25.7567C104.917 30.0535 107.3 32.1268 110.976 32.1268C114.261 32.1268 116.565 30.5242 118.012 27.3993L117.386 27.0487C116.059 29.0018 115.083 29.5877 113.751 29.5877C111.838 29.5877 110.896 28.4559 110.896 25.8719V13.8729H121.127V25.7567C121.127 30.0535 123.511 32.1268 127.187 32.1268C130.472 32.1268 132.776 30.5242 134.223 27.3993L133.597 27.0487Z" fill="#003746"></path><path d="M100.599 12.0002H138.296V14.1919H101.518L100.599 12.0002Z" fill="#003746"></path></g><path clip-rule="evenodd" d="M144 12.8708C144 15.7297 141.683 18.0473 138.824 18.0473C135.965 18.0473 133.647 15.7297 133.647 12.8708C133.647 10.0119 135.965 7.69434 138.824 7.69434C141.683 7.69434 144 10.0119 144 12.8708ZM142.116 12.8703C142.116 14.1698 141.378 15.2232 140.469 15.2232C139.559 15.2232 138.821 14.1698 138.821 12.8703C138.821 11.5708 139.559 10.5173 140.469 10.5173C141.378 10.5173 142.116 11.5708 142.116 12.8703Z" fill="#003746" fill-rule="evenodd"></path><defs><clipPath id="clip0_4186_47420"><rect fill="white" height="31.9987" transform="translate(0 0.166016)" width="137.857"></rect></clipPath></defs></svg>